<?xml version="1.0" encoding="UTF-8"?>
<svg width="24" height="24" viewBox="0 0 1200 1200" version="1.1" xmlns="http://www.w3.org/2000/svg">
  <path fill="#DC002B" d="M600 0c331.371 0 600 268.629 600 600s-268.629 600-600 600S0 931.371 0 600 268.629 0 600 0zm0 120c-265.097 0-480 214.903-480 480s214.903 480 480 480 480-214.903 480-480S865.097 120 600 120zm0 80c220.914 0 400 179.086 400 400S820.914 1000 600 1000 200 820.914 200 600s179.086-400 400-400zm150.199 205.714c-19.543 0-38.458 7.771-52.344 21.657l-97.855 97.855-97.855-97.855c-13.886-13.886-32.801-21.657-52.344-21.657-40.971 0-74.001 33.03-74.001 74.001 0 19.543 7.771 38.458 21.657 52.344l97.855 97.855-97.855 97.855c-13.886 13.886-21.657 32.801-21.657 52.344 0 40.971 33.03 74.001 74.001 74.001 19.543 0 38.458-7.771 52.344-21.657l97.855-97.855 97.855 97.855c13.886 13.886 32.801 21.657 52.344 21.657 40.971 0 74.001-33.03 74.001-74.001 0-19.543-7.771-38.458-21.657-52.344l-97.855-97.855 97.855-97.855c13.886-13.886 21.657-32.801 21.657-52.344 0-40.971-33.03-74.001-74.001-74.001z"/>
</svg>